<?xml version="1.0" encoding="utf-8"?>
<!-- Generator: Adobe Illustrator 23.0.3, SVG Export Plug-In . SVG Version: 6.00 Build 0)  -->
<svg version="1.1" id="main" xmlns="http://www.w3.org/2000/svg" xmlns:xlink="http://www.w3.org/1999/xlink" x="0px" y="0px"
	 viewBox="0 0 588 512" style="enable-background:new 0 0 588 512;" xml:space="preserve">
<style type="text/css">
	.st0{fill:#FFFFFF;}
	.st1{fill:#4B4B4B;}
</style>
<path class="st0" d="M452.6,332.3l32.7-266.3c2.1-16.9-9.9-32.3-26.8-34.3l-77-9.5l70.4,304.9C452.2,328.9,452.4,330.6,452.6,332.3z
	"/>
<path class="st0" d="M398.1,355.5l-37.4,24.3l49.3-11.4c16.6-3.8,26.9-20.4,23.1-36.9l-71-307.6c-3.8-16.6-20.4-26.9-37-23.1
	l-85.1,19.6c0.3,0.4,0.6,0.8,0.9,1.2l171.9,264.7C427.9,309.4,421.3,340.5,398.1,355.5z"/>
<path class="st0" d="M376.5,395.8l-11.5,2.7c-8,1.8-16.1-1.6-20.4-8.3L317,408.2l82.8,42.2c15.2,7.7,33.7,1.7,41.4-13.5l143.3-281.2
	c7.7-15.2,1.7-33.7-13.5-41.5L503,79.5l-31.4,255.2c-0.7,5.8-4,10.7-8.6,13.8c-3,2-6.6,3.1-10.5,3.1c-0.4,0-0.9-0.1-1.3-0.1
	c-2.8,10.3-8.8,19.7-17.5,26.5"/>
<path class="st0" d="M396.8,296.8L224.9,32.1c-9.3-14.3-28.3-18.3-42.6-9.1L14,132.2c-14.3,9.3-18.3,28.4-9.1,42.6l171.9,264.7
	c9.3,14.3,28.4,18.3,42.6,9.1l168.2-109.2C402,330.1,406,311.1,396.8,296.8z"/>
<g>
	<path class="st1" d="M219.2,366.1l-9.5,10.4l-6.4,37.9l-6.1-0.4c0.6-2.7,0.4-5-0.4-5.2c-0.8-0.2-2,1.9-2.5,4.7
		c-0.6,2.8-0.4,5.2,0.4,5.3c0.5,0.1,1.2-0.7,1.8-2.1l8.5,4l-1.3,6.3c-1.2,0.6-2.1,1.7-2.4,3.1c-0.5,2.4,1,4.7,3.4,5.2
		c2.4,0.5,4.7-1,5.2-3.4c0.3-1.4-0.1-2.8-1-3.8l1.3-6.3l9.4-0.2c0,1.5,0.2,2.6,0.7,2.7c0.8,0.2,2-1.9,2.5-4.7
		c0.6-2.8,0.4-5.2-0.4-5.3c-0.8-0.2-1.9,1.9-2.5,4.6l-5.7-2.1l9.6-37.2L219.2,366.1z"/>
</g>
<path class="st1" d="M218.8,82.4l5-3.8l-6.4-3.4l2.7-2.8l-15.7-8.1c0,0-5.6-9.5-8.8-10.4c-3.7,2.3-6.6,12.2-6.6,12.2l-4,2.5l-4,2.5
	c0,0-10.2-1.8-13.9,0.5c-0.5,3.3,5.4,12.5,5.4,12.5l0.3,17.7l3.7-1.2l0.2,7.2l5.6-2.7l1.3,4.7l4.4-3.2l1.6,4.2c0,0,4-3.6,5.2-4.3
	c0.9-0.6,2.9,1.1,5.2,2.2c0,0,0.4,0,0.5,0c1.2-0.2,1.8-0.3,2.7-0.8c1.9,0.8,4.2,0.9,6.1-0.3c2-1.2,2.9-3.5,3-5.5
	c0.7-0.8,1.1-1.7,1.5-2.3l0.7-5.5c1.2-0.7,6.1-2.7,6.1-2.7l-3.1-3.3l4.8-2.5L218.8,82.4z"/>
<g>
	<path class="st1" d="M168.3,204.7c11.1-7.2,14.2-22,7-33.1c-7.2-11.1-22-14.2-33.1-7c-11.1,7.2-14.2,22-7,33.1
		C142.4,208.7,157.2,211.9,168.3,204.7z"/>
	<path class="st1" d="M322,263.8l-37.3-2l-43-17.3l-30.3-33.2l19.8-17.3l27.1-1.5c3.7,0,6.9-2.7,7.4-6.4l0-0.2
		c0.6-4.1-2.2-7.9-6.3-8.5l-27.6-4.2c-3-0.4-6,0.1-8.6,1.7l-45.3,26c-1.4,0.8-2.6,1.7-2.6,1.7c-0.5,0.4-1.1,0.9-1.6,1.3
		c-2.8,2.6-4.8,5.8-6,9.2L147,250.5l-26.4,4.7c-4.3,0.3-7.6,3.9-7.4,8.2l0,0.6c0.1,2.1,1,4.1,2.5,5.6c1.6,1.5,3.6,2.2,5.8,2.1
		l33.5-1.3c4.2-0.2,8-2.2,10.5-5.6l16.1-17.8l19.5,18.3l-24.3,20.1c-3.8,2.5-6.3,6.5-6.8,11c-0.5,4.5,1,9,4.1,12.2l32.9,34.1
		c3.6,3.8,9.6,4,13.6,0.5l0.3-0.3c3.9-3.4,4.4-9.3,1.2-13.4l-16.2-27l33.8-25.3l33.2,8c4.3,0.9,8.7,1.2,13.1,0.9l37.5-2.9
		c5.2-0.5,9-5,8.7-10.2l0-0.4C331.6,267.6,327.2,263.6,322,263.8z"/>
	<polyline class="st1" points="134.6,173.6 135.9,160.6 141.6,165.6 	"/>
	<polyline class="st1" points="173.4,170.4 176.5,153.8 161.2,161.6 	"/>
</g>
<g>
	<path class="st1" d="M336.5,288.1l28.9,15.5c1.9,1,3.4,2.4,4.6,4.2c0.8,1.2,1.4,2.5,1.8,3.9c0.4,1.4,0.6,2.7,0.6,4.1
		c0,1.4-0.2,2.8-0.5,4.2c-0.4,1.4-0.9,2.7-1.6,4c-0.7,1.3-1.6,2.5-2.6,3.6c-1,1.1-2.2,2.1-3.6,3s-2.7,1.6-4.2,2s-2.9,0.8-4.4,0.9
		c-1.5,0.1-2.9,0.1-4.3-0.2c-1.4-0.2-2.8-0.6-4-1.2c-1.3-0.6-2.5-1.3-3.5-2.2c-1.1-0.9-2-2-2.8-3.2c-1.1-1.8-1.8-3.7-2-5.9
		L336.5,288.1z"/>
</g>
<circle class="st1" cx="57.3" cy="168.4" r="24.1"/>
</svg>
