<?xml version="1.0" encoding="utf-8"?>
<svg version="1.1" id="_x32_" xmlns="http://www.w3.org/2000/svg" xmlns:xlink="http://www.w3.org/1999/xlink" x="0px" y="0px"
	 viewBox="0 0 512 512" style="enable-background:new 0 0 512 512;" xml:space="preserve">
<style type="text/css">
	.st0{fill:#FFFFFF;}
</style>
<g>
	<path class="st0" d="M256,0C114.6,0,0,114.6,0,256s114.6,256,256,256c141.4,0,256-114.6,256-256S397.4,0,256,0z M300.9,373.5
		c-10.4,11.5-16.3,18.3-27.5,29c-16.9,16.2-36.1,20.5-51.1,4.5c-21.5-23,1-92.8,1.6-95.4c4-18.6,12.1-55.7,12.1-55.7
		s-17.4,10.6-27.7,14.4c-7.6,2.8-16.2-0.9-18.4-8.2c-2-6.8-0.4-11.2,3.8-15.8c10.4-11.5,16.3-18.3,27.5-29
		c16.9-16.2,36.1-20.5,51.1-4.5c21.5,23,5.6,60.7,0.1,87.5c-0.5,2.7-13.7,63.6-13.7,63.6s17.4-10.6,27.7-14.4
		c7.6-2.8,16.2,0.9,18.4,8.2C306.7,364.5,305.1,368.9,300.9,373.5z M273.2,176.1c-23.9,2.1-44.9-15.6-47-39.5
		c-2.1-23.9,15.6-44.9,39.5-47c23.9-2.1,44.9,15.6,47,39.5C314.7,153,297,174,273.2,176.1z"/>
</g>
</svg>
